<?xml version="1.0" encoding="UTF-8"?><svg id="a" xmlns="http://www.w3.org/2000/svg" viewBox="0 0 24 26"><path d="m3.22418,25.68582l8.77582-9.09266,8.77581,9.09266c.40462.41923,1.0598.41885,1.46397-.00083l1.45685-1.51274c.40448-.42.40448-1.10097,0-1.52097l-10.88429-11.30189c-.44865-.46586-1.17604-.46586-1.62469,0L.30336,22.65128c-.40448.42-.40448,1.10097,0,1.52097l1.45685,1.51274c.40417.41968,1.05936.42005,1.46397.00083Z"/><path d="m3.22418,14.68582L12,5.59316l8.77581,9.09266c.40462.41923,1.0598.41885,1.46397-.00083l1.45685-1.51274c.40448-.42.40448-1.10097,0-1.52097L12.81234.34939c-.44865-.46586-1.17604-.46586-1.62469,0L.30336,11.65128c-.40448.42-.40448,1.10097,0,1.52097l1.45685,1.51274c.40417.41968,1.05936.42005,1.46397.00083Z"/></svg>