<?xml version="1.0" encoding="UTF-8"?><svg id="a" xmlns="http://www.w3.org/2000/svg" viewBox="0 0 24 24"><path d="m23.78771,11.48767L12.51248.21229c-.28305-.28306-.74197-.28305-1.02502,0L.21229,11.48767c-.28305.28306-.28305.74198,0,1.02504l1.02502,1.02501c.28305.28305.74196.28304,1.02501,0L12.00003,3.79988l9.73764,9.73783c.28305.28305.74196.28306,1.02501,0l1.02502-1.025c.28306-.28305.28306-.74198,0-1.02504Z"/><path d="m23.78771,21.73767l-11.27523-11.27538c-.28305-.28306-.74197-.28305-1.02502,0L.21229,21.73767c-.28305.28306-.28305.74198,0,1.02504l1.02502,1.02501c.28305.28305.74196.28304,1.02501,0l9.7377-9.73783,9.73764,9.73783c.28305.28305.74196.28306,1.02501,0l1.02502-1.025c.28306-.28305.28306-.74198,0-1.02504Z"/></svg>