<svg xmlns="http://www.w3.org/2000/svg" viewBox="0 0 32 32" data-v-9c8ccdfa=""><path d="M14.204.111a15.97622,15.97622,0,0,0-4.00812,30.78236.73678.73678,0,0,0,.96195-.80162v-2.5652a6.61563,6.61563,0,0,1-1.44293.16032A3.45889,3.45889,0,0,1,6.348,24.64066a3.32649,3.32649,0,0,0-.96195-1.60324c-.481-.16033-.6413-.16033-.6413-.32065,0-.32065.481-.32065.6413-.32065.96195,0,1.76358,1.12227,2.08423,1.60324a2.92191,2.92191,0,0,0,2.24454,1.60325,3.20131,3.20131,0,0,0,1.44292-.32065A4.06321,4.06321,0,0,1,12.761,22.39612c-3.68747-.80163-6.413-2.88585-6.413-6.413a7.55687,7.55687,0,0,1,1.9239-4.80974,5.94654,5.94654,0,0,1-.32065-2.24455,5.49483,5.49483,0,0,1,.481-2.56519,7.21525,7.21525,0,0,1,4.4891,2.08422,8.67724,8.67724,0,0,1,3.04617-.481,10.33733,10.33733,0,0,1,3.2065.481,6.91238,6.91238,0,0,1,4.48909-2.08422,7.96868,7.96868,0,0,1,.32065,2.56519,5.33073,5.33073,0,0,1-.32065,2.24455,7.223,7.223,0,0,1,1.9239,4.80974c0,3.52715-2.72552,5.61137-6.413,6.413a4.94328,4.94328,0,0,1,1.60324,3.68747V30.252a.87362.87362,0,0,0,1.12228.80163A16.09545,16.09545,0,0,0,14.204.111Z" data-v-9c8ccdfa=""></path></svg>