<?xml version="1.0" encoding="utf-8"?>
<!-- Generator: Adobe Illustrator 27.2.0, SVG Export Plug-In . SVG Version: 6.00 Build 0)  -->
<svg version="1.1" id="a" xmlns="http://www.w3.org/2000/svg" xmlns:xlink="http://www.w3.org/1999/xlink" x="0px" y="0px"
	 viewBox="0 0 24 24" style="enable-background:new 0 0 24 24;" xml:space="preserve">
<g>
	<path d="M23.3,0h-1.7h-9C12.3,0,12,0.3,12,0.7v1.7C12,2.7,12.3,3,12.7,3h5.5l-9.3,9.3c-0.4,0.4-0.4,1,0,1.3l1.5,1.5
		c0.4,0.4,1,0.4,1.3,0L21,5.8v5.5c0,0.4,0.3,0.7,0.7,0.7h1.7c0.4,0,0.7-0.3,0.7-0.7v-9V0.7C24,0.3,23.7,0,23.3,0z"/>
	<path d="M17.1,20H4V6.9C4,6.4,3.6,6,3.1,6H0.9C0.4,6,0,6.4,0,6.9v14v2.1C0,23.6,0.4,24,0.9,24h2.1h14c0.5,0,0.9-0.4,0.9-0.9v-2.1
		C18,20.4,17.6,20,17.1,20z"/>
</g>
</svg>
