<?xml version="1.0" encoding="UTF-8"?><svg id="a" xmlns="http://www.w3.org/2000/svg" viewBox="0 0 64 64"><defs><style>.b{fill:#faf9fc;}.c{fill:#243e84;}</style></defs><rect class="c" x="0" y="0" width="64" height="64"/><g><path class="b" d="M26.16697,34.19798c4.98072-1.19745,9.86639-2.66712,14.44669-5.00189,2.27347-1.15888,4.39992-2.52518,6.15782-4.40394,3.06309-3.27368,3.1697-7.39534,.26145-10.7943-1.67736-1.96039-3.80266-3.3358-6.06075-4.52393-4.06867-2.14079-8.41503-3.54197-12.84814-4.70417-4.74009-1.24268-9.56832-2.01987-14.41607-2.69521-.7017-.09775-.74752-.24984-.74685,.66503,.00398,5.50071,.00464,11.00141,.00198,16.50212h-.00821c0,5.5729-.0034,11.14578-.01019,16.71865-.00134,.47068,.14707,.55772,.57915,.49374,4.23707-.62741,8.47368-1.25368,12.64312-2.2561Zm-5.48728-23.73176c5.17839,1.02967,10.27642,2.3278,15.11459,4.48494,1.69921,.75761,3.34614,1.6169,4.78946,2.80489,.26332,.23655,.51315,.48749,.74835,.75167,.37757,.40884,.37217,1.03829-.01236,1.44067-.38769,.40504-.85581,.87347-1.14386,1.08967-2.12995,1.59869-4.55322,2.6487-7.03006,3.58152-4.00311,1.50764-8.13898,2.54006-12.33232,3.36091-.56598,.11079-.56936,.10398-.56952-.49174-.00078-2.77095-.0009-5.5419-.00035-8.31285h-.00211c0-2.77095,.00441-5.54192-.0057-8.31285-.00123-.33868,.07891-.46942,.44387-.39685Z"/><path class="b" d="M51.05464,45.50843c0-5.34233-.00095-10.68466-.00287-16.02699-.01083-.12154-.03283-.24184-.06572-.3594-.08509,.05151-.16641,.10894-.24334,.17184-1.88824,1.76487-4.03267,3.16536-6.32614,4.34284-.43853,.22515-.58552,.47842-.58419,.96409,.01688,6.15086,.02022,12.30176,.01002,18.4527-.0001,.58822-.00792,.59684-.58435,.4848-3.56672-.69326-7.09105-1.55336-10.5313-2.72496-3.07181-1.04612-6.08284-2.23644-8.7329-4.15175-.6148-.44434-1.13938-1.01973-1.6629-1.57449-.10525-.11153-.10105-.46153-.0026-.59987,.26099-.36358,.56446-.69513,.90406-.98769,1.3826-1.19613,2.98688-2.041,4.62609-2.82687,.10623-.05976,.20811-.12685,.3049-.20076-.10831-.03792-.21941-.06745-.33231-.08834-1.98683-.22028-3.97034-.23176-5.93924,.1567-2.51932,.49705-4.71256,1.5801-6.46386,3.50231-.50854,.55817-.60048,1.12876-.48246,1.82301,.39411,2.31845,1.71719,4.06725,3.4321,5.5732,2.18095,1.91522,4.71478,3.26045,7.36019,4.40964,4.54479,1.9743,9.28282,3.3548,14.13576,4.31294,3.4857,.68821,7.00775,1.1946,10.51348,1.78269,.66596,.11173,.6681,.11185,.66813-.53858,.00025-5.29903,.00006-10.59805-.00057-15.89708Z"/></g></svg>